<svg height="512" viewBox="0 0 64 64" width="512" xmlns="http://www.w3.org/2000/svg"><g id="flat"><path d="m50 52h-4a1 1 0 0 1 0-2h3v-7a1 1 0 0 1 1-1h4a1 1 0 0 1 0 2h-3v7a1 1 0 0 1 -1 1z" fill="#50b4f8"/><circle cx="24" cy="15" fill="#f9bb4b" r="8"/><path d="m6 35h36v26h-36z" fill="#50b4f8"/><path d="m10 39h28v18h-28z" fill="#fff69a"/><path d="m11 23v4l6 2v6h14v-6l6-2v-4z" fill="#e33e5c"/><path d="m9 23h2a0 0 0 0 1 0 0v4a0 0 0 0 1 0 0h-2a2 2 0 0 1 -2-2 2 2 0 0 1 2-2z" fill="#f9bb4b"/><path d="m39 23h2a0 0 0 0 1 0 0v4a0 0 0 0 1 0 0h-2a2 2 0 0 1 -2-2 2 2 0 0 1 2-2z" fill="#f9bb4b" transform="matrix(-1 0 0 -1 78 50)"/><path d="m21 12h2v2h-2z" fill="#66342e"/><path d="m25 12h2v2h-2z" fill="#66342e"/><circle cx="7" cy="9" fill="#8ec13f" r="2"/><path d="m32 15-8-8 8-4 7 5-7-1z" fill="#e33e5c"/><circle cx="41" cy="9" fill="#8ec13f" r="2"/><path d="m16 15 8-8-8-4-7 5 7-1z" fill="#e33e5c"/><path d="m24 20a5.148 5.148 0 0 1 -4.969-3.75l1.938-.5a3.167 3.167 0 0 0 6.062 0l1.938.5a5.148 5.148 0 0 1 -4.969 3.75z" fill="#66342e"/><circle cx="24" cy="29" fill="#fff69a" r="2"/><path d="m20 39a19.631 19.631 0 0 1 -10 11v-11z" fill="#195c85"/><path d="m10 50 6 7h-6z" fill="#195c85"/><path d="m28 39a19.631 19.631 0 0 0 10 11v-11z" fill="#195c85"/><path d="m38 50-6 7h6z" fill="#195c85"/><path d="m24 43 1.545 3.292 3.455.708-2.5 2.382.5 3.618-3-2-3 2 .5-3.618-2.5-2.382 3.455-.708z" fill="#e97424"/><g fill="#f9bb4b"><path d="m60 46-6-1v-4l6-1z"/><path d="m42 46h4v10h-4z"/><path d="m37 14h2v2h-2z"/><path d="m37 18h2v2h-2z"/><path d="m35 16h2v2h-2z"/><path d="m39 16h2v2h-2z"/><path d="m9 13h2v2h-2z"/><path d="m9 17h2v2h-2z"/><path d="m7 15h2v2h-2z"/><path d="m11 15h2v2h-2z"/><path d="m15 50h2v2h-2z"/><path d="m31 50h2v2h-2z"/></g></g></svg>